<?xml version="1.0" standalone="no"?>
<!DOCTYPE svg PUBLIC "-//W3C//DTD SVG 20010904//EN"
 "http://www.w3.org/TR/2001/REC-SVG-20010904/DTD/svg10.dtd">
<svg version="1.0" xmlns="http://www.w3.org/2000/svg"
 width="526.000000pt" height="526.000000pt" viewBox="0 0 526.000000 526.000000"
 preserveAspectRatio="xMidYMid meet">
<metadata>
Created by potrace 1.14, written by Peter Selinger 2001-2017
</metadata>
<g transform="translate(0.000000,526.000000) scale(0.100000,-0.100000)"
fill="#000000" stroke="none">
<path d="M3615 5103 c-42 -11 -55 -33 -55 -98 0 -34 7 -82 15 -107 15 -41 14
-48 -3 -89 -23 -52 -46 -132 -62 -212 -11 -56 -13 -58 -38 -52 -14 3 -145 24
-290 46 -311 46 -463 78 -588 125 -154 57 -194 43 -194 -70 0 -80 26 -223 47
-255 68 -106 152 -126 578 -141 149 -5 311 -14 361 -21 l91 -13 33 -100 c19
-55 36 -123 38 -151 l4 -51 -173 -18 c-508 -50 -624 -59 -858 -60 -226 -2
-244 -3 -257 -21 -23 -32 -16 -70 26 -133 76 -113 153 -165 245 -164 28 0 179
23 336 51 157 28 290 51 295 51 5 0 22 -24 38 -54 l29 -54 -16 -54 c-22 -71
-37 -176 -37 -269 0 -171 -32 -238 -185 -393 -107 -108 -221 -193 -301 -224
-55 -22 -67 -47 -35 -76 47 -43 169 13 389 179 85 64 184 131 220 149 69 35
133 94 169 156 36 60 81 204 108 340 45 230 34 265 -99 314 -63 24 -50 32 86
51 142 20 134 22 163 -35 l25 -49 -25 -76 c-29 -87 -49 -266 -40 -360 16 -165
64 -441 95 -551 l19 -67 -57 6 c-88 9 -203 -8 -224 -34 -24 -29 -23 -36 12
-71 25 -24 36 -29 58 -23 15 4 100 7 189 6 211 -2 205 -7 174 139 -25 115 -10
243 63 532 51 202 70 250 118 304 64 71 72 108 39 179 -25 53 -67 92 -127 115
l-49 19 50 0 c104 1 284 -21 459 -55 99 -20 222 -42 271 -50 129 -19 163 -31
203 -70 39 -37 97 -48 108 -19 16 40 -52 122 -118 144 -18 6 -80 18 -138 26
-57 9 -193 36 -302 60 -133 31 -242 49 -331 56 -138 11 -168 16 -282 54 -38
13 -98 27 -132 31 -55 6 -63 9 -63 28 0 38 20 99 62 188 40 85 42 87 82 94 22
3 82 19 131 34 123 38 244 57 485 75 223 17 299 28 375 52 108 34 215 102 215
137 0 8 -7 22 -16 30 -29 30 -59 29 -121 -2 -131 -67 -137 -67 -568 -64 -214
2 -391 5 -392 6 -2 2 26 71 62 154 53 122 65 161 65 203 0 96 -65 169 -181
204 -30 8 -97 29 -149 45 -52 17 -97 30 -100 29 -3 -1 -14 -4 -25 -6z"/>
<path d="M2778 3505 c-34 -19 -45 -58 -29 -99 17 -41 17 -39 -23 -136 -21 -52
-39 -115 -45 -163 -12 -103 -48 -173 -135 -264 -85 -90 -150 -125 -250 -132
-68 -6 -71 -7 -74 -33 -5 -39 26 -52 108 -46 76 6 154 38 234 95 28 20 84 61
124 90 48 34 97 60 141 73 38 11 79 29 93 39 13 11 64 98 112 195 97 193 100
210 57 280 -22 35 -49 51 -151 86 -87 29 -129 33 -162 15z"/>
<path d="M4213 3460 c-48 -29 -51 -59 -13 -125 29 -51 33 -66 35 -148 3 -108
25 -200 67 -280 37 -68 81 -110 174 -165 38 -23 112 -79 164 -126 52 -46 119
-99 148 -117 88 -53 177 -50 245 9 23 20 22 59 -2 72 -25 13 -68 13 -76 0 -11
-17 -84 -11 -128 11 -66 34 -161 140 -204 227 -33 66 -38 87 -42 161 -2 48 2
129 9 182 7 53 10 112 6 133 -11 56 -59 96 -174 144 -114 47 -161 52 -209 22z"/>
<path d="M1144 3421 c-77 -49 -104 -86 -104 -142 0 -32 -10 -60 -40 -111 -38
-63 -50 -73 -168 -151 -224 -147 -222 -147 -297 -87 -40 32 -76 38 -93 17 -11
-13 -2 -109 14 -152 28 -76 108 -123 191 -111 60 8 118 42 199 119 37 34 96
80 133 102 62 37 69 46 112 129 l46 89 40 -54 c22 -30 88 -128 147 -219 59
-91 119 -175 134 -188 39 -34 152 -89 260 -128 140 -51 229 -94 331 -163 107
-71 154 -86 209 -71 50 13 80 45 65 68 -7 12 -25 17 -64 18 -90 2 -153 37
-312 176 -239 207 -223 188 -352 408 -78 131 -153 236 -230 320 -39 42 -55 68
-60 99 -13 80 -68 91 -161 32z"/>
<path d="M3092 2188 c-15 -15 -15 -33 0 -74 11 -31 10 -35 -30 -78 -22 -24
-55 -73 -73 -107 -47 -94 -139 -356 -139 -397 0 -20 9 -68 20 -106 10 -39 28
-123 39 -186 35 -196 67 -270 118 -270 31 0 39 13 62 90 12 41 48 128 78 192
47 98 54 120 43 133 -35 42 -91 -6 -161 -139 l-37 -69 -7 116 c-9 143 1 176
83 291 32 45 87 123 122 174 36 53 91 118 128 150 74 65 85 86 71 135 -10 38
-69 97 -97 97 -9 0 -46 14 -80 30 -67 31 -120 38 -140 18z"/>
<path d="M582 1888 c-24 -24 -12 -61 43 -128 30 -37 57 -81 61 -96 11 -48 40
-98 87 -150 53 -59 159 -205 153 -211 -2 -2 -86 12 -187 32 -224 44 -269 40
-269 -27 0 -53 73 -168 123 -195 27 -14 67 -17 237 -18 113 -1 215 -5 226 -9
21 -6 22 -14 29 -191 4 -101 4 -206 1 -232 -19 -131 -57 -202 -121 -223 -36
-12 -46 -35 -23 -58 30 -30 131 6 162 59 10 17 27 57 36 88 10 31 30 83 44
116 14 34 35 114 46 179 12 65 30 148 41 183 11 35 18 70 16 76 -11 34 407
198 501 197 56 -1 77 -18 137 -110 61 -93 63 -111 22 -162 -12 -14 -53 -66
-91 -115 -155 -197 -195 -221 -281 -168 -44 27 -75 31 -93 13 -19 -19 -14 -37
21 -69 74 -69 161 -88 225 -49 19 12 63 43 99 70 35 28 115 74 177 104 132 64
205 118 242 182 56 96 26 182 -99 280 -89 70 -165 109 -242 124 -57 11 -68 10
-235 -34 -229 -59 -333 -78 -416 -74 l-68 3 -51 145 c-28 80 -65 170 -83 201
-19 33 -34 75 -37 105 -10 98 -54 130 -216 155 -144 22 -200 24 -217 7z"/>
<path d="M1513 1866 c-91 -29 -143 -77 -143 -133 0 -27 14 -45 91 -120 106
-103 147 -130 209 -138 61 -8 121 -21 209 -45 88 -24 131 -16 175 29 l28 29
-22 15 c-16 11 -29 13 -47 6 -64 -24 -154 12 -225 90 -126 139 -148 169 -148
205 0 25 -7 40 -26 55 -30 24 -43 25 -101 7z"/>
<path d="M4010 1843 c-61 -6 -79 -13 -90 -33 -13 -25 7 -69 47 -100 15 -11 32
-35 39 -53 7 -18 26 -69 43 -114 17 -46 38 -94 47 -108 22 -34 14 -127 -19
-218 -32 -89 -68 -134 -111 -143 -45 -8 -51 -27 -20 -64 19 -22 34 -30 59 -30
45 0 83 45 146 174 28 58 76 135 109 176 73 89 75 106 25 257 -19 58 -35 121
-35 140 0 46 -24 89 -60 108 -27 14 -92 17 -180 8z"/>
</g>
</svg>
